<mxfile host="app.diagrams.net" modified="2020-09-06T08:12:38.137Z" agent="5.0 (Macintosh; Intel Mac OS X 10_15_6) AppleWebKit/537.36 (KHTML, like Gecko) Chrome/85.0.4183.83 Safari/537.36" etag="x5ngYr0UL7bxO7tWwSmP" version="13.6.5" type="github">
  <diagram id="C5RBs43oDa-KdzZeNtuy" name="Page-1">
    <mxGraphModel dx="2066" dy="1131" grid="1" gridSize="10" guides="1" tooltips="1" connect="1" arrows="1" fold="1" page="1" pageScale="1" pageWidth="827" pageHeight="1169" math="0" shadow="0">
      <root>
        <mxCell id="WIyWlLk6GJQsqaUBKTNV-0" />
        <mxCell id="WIyWlLk6GJQsqaUBKTNV-1" parent="WIyWlLk6GJQsqaUBKTNV-0" />
        <mxCell id="iQLolLVxjONEsHXGhb9Q-1" style="edgeStyle=orthogonalEdgeStyle;rounded=0;orthogonalLoop=1;jettySize=auto;html=1;exitX=1;exitY=0.5;exitDx=0;exitDy=0;" edge="1" parent="WIyWlLk6GJQsqaUBKTNV-1" source="iQLolLVxjONEsHXGhb9Q-0" target="iQLolLVxjONEsHXGhb9Q-2">
          <mxGeometry relative="1" as="geometry">
            <mxPoint x="610" y="620" as="targetPoint" />
            <Array as="points">
              <mxPoint x="380" y="610" />
            </Array>
          </mxGeometry>
        </mxCell>
        <mxCell id="iQLolLVxjONEsHXGhb9Q-4" value="调用monitor.setup(callback)安装monitor" style="edgeLabel;html=1;align=center;verticalAlign=middle;resizable=0;points=[];" vertex="1" connectable="0" parent="iQLolLVxjONEsHXGhb9Q-1">
          <mxGeometry x="0.2778" y="1" relative="1" as="geometry">
            <mxPoint x="-21" as="offset" />
          </mxGeometry>
        </mxCell>
        <mxCell id="iQLolLVxjONEsHXGhb9Q-0" value="Slardar实例&lt;br&gt;（包含client实例）" style="rounded=1;whiteSpace=wrap;html=1;" vertex="1" parent="WIyWlLk6GJQsqaUBKTNV-1">
          <mxGeometry x="260" y="590" width="120" height="60" as="geometry" />
        </mxCell>
        <mxCell id="iQLolLVxjONEsHXGhb9Q-2" value="Monitor" style="rounded=1;whiteSpace=wrap;html=1;" vertex="1" parent="WIyWlLk6GJQsqaUBKTNV-1">
          <mxGeometry x="590" y="590" width="120" height="60" as="geometry" />
        </mxCell>
        <mxCell id="iQLolLVxjONEsHXGhb9Q-3" value="" style="endArrow=classic;html=1;exitX=0;exitY=0.75;exitDx=0;exitDy=0;entryX=1;entryY=0.75;entryDx=0;entryDy=0;" edge="1" parent="WIyWlLk6GJQsqaUBKTNV-1" source="iQLolLVxjONEsHXGhb9Q-2" target="iQLolLVxjONEsHXGhb9Q-0">
          <mxGeometry width="50" height="50" relative="1" as="geometry">
            <mxPoint x="390" y="600" as="sourcePoint" />
            <mxPoint x="440" y="550" as="targetPoint" />
          </mxGeometry>
        </mxCell>
        <mxCell id="iQLolLVxjONEsHXGhb9Q-5" value="callback(data)" style="edgeLabel;html=1;align=center;verticalAlign=middle;resizable=0;points=[];" vertex="1" connectable="0" parent="iQLolLVxjONEsHXGhb9Q-3">
          <mxGeometry x="0.128" y="-2" relative="1" as="geometry">
            <mxPoint as="offset" />
          </mxGeometry>
        </mxCell>
        <mxCell id="iQLolLVxjONEsHXGhb9Q-6" value="异步数据情况，callback = client.sendEvent," style="shape=document;whiteSpace=wrap;html=1;boundedLbl=1;" vertex="1" parent="WIyWlLk6GJQsqaUBKTNV-1">
          <mxGeometry x="414" y="690" width="120" height="80" as="geometry" />
        </mxCell>
        <mxCell id="iQLolLVxjONEsHXGhb9Q-9" value="" style="curved=1;endArrow=classic;html=1;entryX=0.5;entryY=0;entryDx=0;entryDy=0;" edge="1" parent="WIyWlLk6GJQsqaUBKTNV-1" target="iQLolLVxjONEsHXGhb9Q-6">
          <mxGeometry width="50" height="50" relative="1" as="geometry">
            <mxPoint x="470" y="640" as="sourcePoint" />
            <mxPoint x="440" y="520" as="targetPoint" />
            <Array as="points">
              <mxPoint x="520" y="660" />
              <mxPoint x="520" y="670" />
              <mxPoint x="490" y="670" />
              <mxPoint x="500" y="680" />
            </Array>
          </mxGeometry>
        </mxCell>
        <mxCell id="iQLolLVxjONEsHXGhb9Q-12" value="调用monitor.setup()安装monitor" style="edgeStyle=orthogonalEdgeStyle;rounded=0;orthogonalLoop=1;jettySize=auto;html=1;exitX=1;exitY=0.5;exitDx=0;exitDy=0;entryX=0;entryY=0.5;entryDx=0;entryDy=0;" edge="1" parent="WIyWlLk6GJQsqaUBKTNV-1" source="iQLolLVxjONEsHXGhb9Q-10" target="iQLolLVxjONEsHXGhb9Q-11">
          <mxGeometry relative="1" as="geometry">
            <Array as="points">
              <mxPoint x="369" y="410" />
              <mxPoint x="579" y="410" />
            </Array>
          </mxGeometry>
        </mxCell>
        <mxCell id="iQLolLVxjONEsHXGhb9Q-10" value="Slardar实例" style="rounded=1;whiteSpace=wrap;html=1;" vertex="1" parent="WIyWlLk6GJQsqaUBKTNV-1">
          <mxGeometry x="249" y="390" width="120" height="60" as="geometry" />
        </mxCell>
        <mxCell id="iQLolLVxjONEsHXGhb9Q-11" value="Monitor" style="rounded=1;whiteSpace=wrap;html=1;" vertex="1" parent="WIyWlLk6GJQsqaUBKTNV-1">
          <mxGeometry x="579" y="390" width="120" height="60" as="geometry" />
        </mxCell>
        <mxCell id="iQLolLVxjONEsHXGhb9Q-13" value="" style="endArrow=classic;html=1;exitX=0;exitY=0.75;exitDx=0;exitDy=0;entryX=1;entryY=0.75;entryDx=0;entryDy=0;" edge="1" parent="WIyWlLk6GJQsqaUBKTNV-1" source="iQLolLVxjONEsHXGhb9Q-11" target="iQLolLVxjONEsHXGhb9Q-10">
          <mxGeometry width="50" height="50" relative="1" as="geometry">
            <mxPoint x="379" y="510" as="sourcePoint" />
            <mxPoint x="429" y="460" as="targetPoint" />
          </mxGeometry>
        </mxCell>
        <mxCell id="iQLolLVxjONEsHXGhb9Q-16" value="调用monitor的自定义方法获取数据" style="edgeLabel;html=1;align=center;verticalAlign=middle;resizable=0;points=[];" vertex="1" connectable="0" parent="iQLolLVxjONEsHXGhb9Q-13">
          <mxGeometry x="0.2" y="2" relative="1" as="geometry">
            <mxPoint x="26" as="offset" />
          </mxGeometry>
        </mxCell>
        <mxCell id="iQLolLVxjONEsHXGhb9Q-17" value="同步数据情况" style="shape=document;whiteSpace=wrap;html=1;boundedLbl=1;" vertex="1" parent="WIyWlLk6GJQsqaUBKTNV-1">
          <mxGeometry x="430" y="480" width="120" height="80" as="geometry" />
        </mxCell>
        <mxCell id="iQLolLVxjONEsHXGhb9Q-18" value="" style="curved=1;endArrow=classic;html=1;entryX=0.5;entryY=0;entryDx=0;entryDy=0;" edge="1" parent="WIyWlLk6GJQsqaUBKTNV-1" target="iQLolLVxjONEsHXGhb9Q-17">
          <mxGeometry width="50" height="50" relative="1" as="geometry">
            <mxPoint x="490" y="450" as="sourcePoint" />
            <mxPoint x="440" y="520" as="targetPoint" />
            <Array as="points">
              <mxPoint x="520" y="480" />
              <mxPoint x="420" y="450" />
            </Array>
          </mxGeometry>
        </mxCell>
      </root>
    </mxGraphModel>
  </diagram>
</mxfile>
